<svg width="399" height="399" viewBox="0 0 399 399" fill="none" xmlns="http://www.w3.org/2000/svg">
<rect width="398" height="399" rx="43" fill="#178842"/>
<circle cx="199.016" cy="188.363" r="152.53" fill="#D9D9D9"/>
<path d="M180.317 0.800739C91.4554 9.47069 20.5239 73.6508 2.59368 161.814C0.338306 173.074 0 178.028 0 199.534C0 221.04 0.338306 225.994 2.59368 237.254C11.6152 281.392 33.7178 320.125 66.4208 348.95C157.763 429.457 299.175 410.54 366.273 308.753C381.158 286.233 391.42 259.661 396.495 230.498C398.525 219.351 398.525 179.83 396.608 168.57C384.316 98.4221 341.013 43.1371 276.96 15.8887C247.978 3.50306 211.554 -2.23937 180.317 0.800739ZM332.104 138.732C332.104 140.196 308.084 170.934 306.167 171.948C304.814 172.623 287.335 173.074 260.608 173.074C218.207 173.074 216.967 173.186 214.712 175.438C212.456 177.69 212.569 181.181 215.05 183.77C215.614 184.446 232.98 185.122 259.706 185.572C295.341 186.135 304.588 186.585 310.114 188.162C318.121 190.301 324.887 194.805 328.495 200.097C335.149 210.005 336.164 227.12 330.638 237.929C326.916 245.361 317.895 253.355 309.776 256.621C303.348 259.21 302.897 259.21 237.378 259.773C201.067 260.111 170.845 260.111 170.055 259.773C168.702 259.21 188.775 232.074 193.624 227.908C195.766 226.107 199.826 225.994 242.791 225.994C289.364 225.994 289.703 225.994 292.296 223.517C295.454 220.59 295.567 218 292.635 215.298C290.605 213.496 287.109 213.271 251.813 213.046C211.78 212.82 204.224 212.032 192.496 207.191C181.896 202.799 175.468 193.454 174.453 181.406L173.889 174.2H166.221H158.44V217.549V260.899H138.142H117.843V216.986V173.074H91.7937C77.3593 173.074 65.4058 172.961 65.1803 172.736C64.6165 172.06 84.5765 141.997 86.4936 140.871C88.4107 139.633 332.104 137.606 332.104 138.732Z" fill="#178842"/>
</svg>
