<svg role="img" width="100" height="100" viewBox="0 0 100 100" fill="none" xmlns="http://www.w3.org/2000/svg">
<path d="M45.3022 0.200686C22.9769 2.37361 5.15635 18.4589 0.651627 40.5549C0.0849948 43.3769 0 44.6185 0 50.0085C0 55.3985 0.0849948 56.6402 0.651627 59.4621C2.91815 70.5243 8.47115 80.2319 16.6873 87.4561C39.6359 107.633 75.1637 102.892 92.021 77.3817C95.7608 71.7377 98.339 65.0779 99.6139 57.7689C100.124 54.9752 100.124 45.0701 99.6422 42.2481C96.5541 24.6672 85.6748 10.8113 69.5824 3.98213C62.3012 0.877959 53.1501 -0.561247 45.3022 0.200686ZM83.4366 34.7699C83.4366 35.1367 77.4019 42.8407 76.9203 43.0947C76.5803 43.264 72.1889 43.3769 65.4743 43.3769C54.8216 43.3769 54.51 43.4051 53.9434 43.9695C53.3767 44.5339 53.4051 45.4087 54.0284 46.0578C54.17 46.2271 58.5331 46.3964 65.2477 46.5093C74.2005 46.6504 76.5237 46.7632 77.9119 47.1583C79.9234 47.6945 81.6233 48.8233 82.53 50.1496C84.2015 52.633 84.4565 56.9224 83.0683 59.6314C82.1333 61.4939 79.8668 63.4975 77.8269 64.3159C76.212 64.965 76.0987 64.965 59.638 65.1061C50.5152 65.1907 42.9224 65.1907 42.7241 65.1061C42.3841 64.965 47.4271 58.164 48.6454 57.1199C49.1837 56.6684 50.2036 56.6402 60.9979 56.6402C72.6989 56.6402 72.7839 56.6402 73.4355 56.0193C74.2288 55.2856 74.2571 54.6366 73.5205 53.9593C73.0105 53.5078 72.1323 53.4513 63.2645 53.3949C53.2067 53.3384 51.3085 53.1409 48.362 51.9275C45.6989 50.8269 44.084 48.4846 43.829 45.4651L43.6873 43.6591H41.7608H39.8059V54.5237V65.3883H34.7062H29.6065V54.3826V43.3769H23.0619C19.4355 43.3769 16.4323 43.3487 16.3757 43.2922C16.234 43.1229 21.2487 35.5882 21.7303 35.306C22.212 34.9956 83.4366 34.4877 83.4366 34.7699Z" fill="#ECECEC"/>
</svg>
