<svg role="img" width="100" height="101" viewBox="0 0 100 101" fill="none" xmlns="http://www.w3.org/2000/svg">
<path d="M45.3022 0.631289C22.9769 2.80421 5.15635 18.8895 0.651627 40.9855C0.0849948 43.8075 0 45.0491 0 50.4391C0 55.8291 0.0849948 57.0708 0.651627 59.8927C2.91815 70.9549 8.47115 80.6625 16.6873 87.8867C39.6359 108.064 75.1637 103.323 92.021 77.8123C95.7608 72.1683 98.339 65.5085 99.6139 58.1995C100.124 55.4058 100.124 45.5007 99.6422 42.6787C96.5541 25.0978 85.6748 11.2419 69.5824 4.41273C62.3012 1.30856 53.1501 -0.130644 45.3022 0.631289ZM83.4366 35.2005C83.4366 35.5673 77.4019 43.2713 76.9203 43.5253C76.5803 43.6946 72.1889 43.8075 65.4743 43.8075C54.8216 43.8075 54.51 43.8357 53.9434 44.4001C53.3767 44.9645 53.4051 45.8393 54.0284 46.4884C54.17 46.6577 58.5331 46.827 65.2477 46.9399C74.2005 47.081 76.5237 47.1938 77.9119 47.5889C79.9234 48.1251 81.6233 49.2539 82.53 50.5802C84.2015 53.0636 84.4565 57.353 83.0683 60.062C82.1333 61.9246 79.8668 63.9282 77.8269 64.7465C76.212 65.3956 76.0987 65.3956 59.638 65.5367C50.5152 65.6213 42.9224 65.6213 42.7241 65.5367C42.3841 65.3956 47.4271 58.5946 48.6454 57.5505C49.1837 57.099 50.2036 57.0708 60.9979 57.0708C72.6989 57.0708 72.7839 57.0708 73.4355 56.4499C74.2288 55.7162 74.2571 55.0672 73.5205 54.3899C73.0105 53.9384 72.1323 53.8819 63.2645 53.8255C53.2067 53.769 51.3085 53.5715 48.362 52.3581C45.6989 51.2575 44.084 48.9153 43.829 45.8957L43.6873 44.0897H41.7608H39.8059V54.9543V65.8189H34.7062H29.6065V54.8132V43.8075H23.0619C19.4355 43.8075 16.4323 43.7793 16.3757 43.7228C16.234 43.5535 21.2487 36.0188 21.7303 35.7366C22.212 35.4262 83.4366 34.9183 83.4366 35.2005Z" fill="#178842"/>
</svg>
